<svg width="35" height="35" viewBox="0 0 35 35" fill="none" xmlns="http://www.w3.org/2000/svg">
<path d="M29.5312 4.92188H5.46875C4.74355 4.92188 4.04805 5.20996 3.53525 5.72275C3.02246 6.23555 2.73438 6.93105 2.73438 7.65625V21.875C2.73438 22.6002 3.02246 23.2957 3.53525 23.8085C4.04805 24.3213 4.74355 24.6094 5.46875 24.6094H29.5312C30.2565 24.6094 30.952 24.3213 31.4647 23.8085C31.9775 23.2957 32.2656 22.6002 32.2656 21.875V7.65625C32.2656 6.93105 31.9775 6.23555 31.4647 5.72275C30.952 5.20996 30.2565 4.92188 29.5312 4.92188ZM28.9844 21.3281H6.01562V8.20312H28.9844V21.3281ZM32.2656 28.4375C32.2656 28.8726 32.0928 29.2899 31.7851 29.5976C31.4774 29.9053 31.0601 30.0781 30.625 30.0781H4.375C3.93988 30.0781 3.52258 29.9053 3.2149 29.5976C2.90723 29.2899 2.73438 28.8726 2.73438 28.4375C2.73438 28.0024 2.90723 27.5851 3.2149 27.2774C3.52258 26.9697 3.93988 26.7969 4.375 26.7969H30.625C31.0601 26.7969 31.4774 26.9697 31.7851 27.2774C32.0928 27.5851 32.2656 28.0024 32.2656 28.4375ZM14.2188 17.5V12.0312C14.2187 11.7383 14.297 11.4508 14.4456 11.1983C14.5942 10.9459 14.8076 10.7379 15.0638 10.5959C15.32 10.4538 15.6095 10.383 15.9023 10.3906C16.1951 10.3983 16.4805 10.4842 16.7289 10.6395L21.1039 13.3738C21.3401 13.5212 21.5349 13.7264 21.67 13.9698C21.805 14.2133 21.8759 14.4872 21.8759 14.7656C21.8759 15.0441 21.805 15.3179 21.67 15.5614C21.5349 15.8049 21.3401 16.01 21.1039 16.1574L16.7289 18.8918C16.4805 19.047 16.1951 19.133 15.9023 19.1406C15.6095 19.1483 15.32 19.0774 15.0638 18.9354C14.8076 18.7933 14.5942 18.5853 14.4456 18.3329C14.297 18.0805 14.2187 17.7929 14.2188 17.5Z" fill="white"/>
</svg>
