<svg width="27" height="27" viewBox="0 0 27 27" fill="none" xmlns="http://www.w3.org/2000/svg">
<path fill-rule="evenodd" clip-rule="evenodd" d="M17.4375 3.9375V4.5H23.625V5.625H21.375V23.0625C21.375 23.9945 20.6195 24.75 19.6875 24.75H7.3125C6.38052 24.75 5.625 23.9945 5.625 23.0625V5.625H3.375V4.5H9.5625V3.9375C9.5625 3.00552 10.318 2.25 11.25 2.25H15.75C16.682 2.25 17.4375 3.00552 17.4375 3.9375ZM11.25 3.375C10.9393 3.375 10.6875 3.62684 10.6875 3.9375V4.5H16.3125V3.9375C16.3125 3.62684 16.0607 3.375 15.75 3.375H11.25ZM20.25 23.0625C20.25 23.3732 19.9982 23.625 19.6875 23.625H7.3125C7.00184 23.625 6.75 23.3732 6.75 23.0625V5.625H20.25V23.0625ZM14.0625 9H12.9375V20.25H14.0625V9ZM10.125 9V20.25H9V9H10.125ZM18 20.25V9H16.875V20.25H18Z" fill="#0073E6"/>
</svg>
