<svg width="115" height="120" viewBox="0 0 115 120" fill="none" xmlns="http://www.w3.org/2000/svg">
<path fill-rule="evenodd" clip-rule="evenodd" d="M115 60C115 93.1371 89.2564 120 57.5 120C25.7436 120 0 93.1371 0 60C0 26.8629 25.7436 0 57.5 0C72.7499 0 87.3753 6.32141 98.1586 17.5736C108.942 28.8258 115 44.087 115 60ZM86.825 35.4L90.85 39.6L46 85.2L18.975 57.6L23 53.4L46 76.8L86.825 35.4ZM57.5 6C86.0807 6 109.25 30.1766 109.25 60C109.25 89.8234 86.0807 114 57.5 114C28.9193 114 5.75 89.8234 5.75 60C5.75 30.1766 28.9193 6 57.5 6Z" fill="#1F9C70"/>
</svg>
