<svg width="25" height="25" viewBox="0 0 25 25" fill="none" xmlns="http://www.w3.org/2000/svg">
<path fill-rule="evenodd" clip-rule="evenodd" d="M9.8787 13.9443L22.3524 1.4706H15.4411C15.035 1.4706 14.7058 1.1414 14.7058 0.735309C14.7058 0.329217 15.035 1.54972e-05 15.4411 1.54972e-05H23.5293V0C23.7022 0 23.8682 0.0298433 24.0223 0.0846602C24.592 0.287307 24.9999 0.831317 24.9999 1.4706H24.9999V9.55881C24.9999 9.9649 24.6707 10.2941 24.2646 10.2941C23.8585 10.2941 23.5293 9.9649 23.5293 9.55881V2.3734L10.9186 14.9841C10.7233 15.1794 10.4067 15.1794 10.2115 14.9841L9.8787 14.6514C9.68344 14.4561 9.68344 14.1395 9.8787 13.9443ZM20.6029 12.5C20.6029 12.0939 20.9321 11.7647 21.3382 11.7647C21.7329 11.7725 22.051 12.0906 22.0588 12.4853V20.5882C22.0588 23.0248 20.0836 25 17.6471 25H4.41176C1.97521 25 0 23.0248 0 20.5882V7.35296C0 4.91641 1.97521 2.9412 4.41176 2.9412H11.7647C12.1675 2.94903 12.4922 3.27369 12.5 3.6765C12.5 4.08259 12.1708 4.41179 11.7647 4.41179H4.41176C2.7874 4.41179 1.47059 5.7286 1.47059 7.35296V20.5882C1.47059 22.2126 2.7874 23.5294 4.41176 23.5294H17.6618C19.2861 23.5294 20.6029 22.2126 20.6029 20.5882V12.5Z" fill="white"/>
</svg>
