<svg width="25" height="26" viewBox="0 0 25 26" fill="none" xmlns="http://www.w3.org/2000/svg">
<path fill-rule="evenodd" clip-rule="evenodd" d="M0 12.9922C0 6.08863 5.59644 0.492188 12.5 0.492188C15.8152 0.492188 18.9946 1.80915 21.3388 4.15335C23.683 6.49756 25 9.67698 25 12.9922C25 19.8957 19.4036 25.4922 12.5 25.4922C5.59644 25.4922 0 19.8957 0 12.9922ZM1.25 12.9922C1.25 19.2054 6.2868 24.2422 12.5 24.2422C18.7132 24.2422 23.75 19.2054 23.75 12.9922C23.75 6.77898 18.7132 1.74219 12.5 1.74219C6.2868 1.74219 1.25 6.77898 1.25 12.9922ZM11.625 5.49219H13.5V7.99219H11.625V5.49219ZM13.5 9.24219H11.625V20.4922H13.5V9.24219Z" fill="#0073E6"/>
</svg>
